<!-- Generator: Adobe Illustrator 22.1.0, SVG Export Plug-In  -->
<svg version="1.1"
	 xmlns="http://www.w3.org/2000/svg" xmlns:xlink="http://www.w3.org/1999/xlink" xmlns:a="http://ns.adobe.com/AdobeSVGViewerExtensions/3.0/"
	 x="0px" y="0px" width="532.7px" height="273.2px" viewBox="0 0 532.7 273.2" style="enable-background:new 0 0 532.7 273.2;"
	 xml:space="preserve">
<style type="text/css">
	.st0{fill:#3A5A01;}
	.st1{fill-rule:evenodd;clip-rule:evenodd;fill:#3A5A01;}
	.st2{fill-rule:evenodd;clip-rule:evenodd;fill:#9CC33B;}
</style>
<defs>
</defs>
<g>
	<path class="st0" d="M0,218.7V52.3h55.5c14.7,0,25.7,4.1,33,12.4c7.3,8.2,10.9,20.2,10.9,35.9c0,6.2-0.6,11.8-1.7,16.8
		c-1.1,5-2.7,9.1-4.9,12.6c-2.1,3.4-4.6,6.3-7.4,8.7c-2.8,2.4-6.1,4.2-9.8,5.6c-3.7,1.3-7.6,2.3-11.5,2.9c-3.9,0.6-8.3,0.9-13,0.9
		H36.7v70.9H0z M36.7,122.2h11.7c6.6,0,11-1.7,13.2-5.1c2.2-3.4,3.3-9.1,3.3-17.2c0-2.9-0.1-5.3-0.3-7.2c-0.2-1.9-0.6-3.9-1.2-5.9
		c-0.6-2-1.5-3.6-2.7-4.8c-1.2-1.2-2.8-2.1-4.9-2.9c-2.1-0.7-4.6-1.1-7.5-1.1H36.7V122.2z"/>
	<path class="st0" d="M184.2,210.8c-7.4,6.7-17.6,10-30.6,10c-13,0-23.1-3.3-30.4-10c-7.3-6.7-10.9-16.4-10.9-29v-44.9
		c0-12.7,3.6-22.4,10.9-29.1c7.3-6.7,17.4-10,30.4-10c13,0,23.2,3.3,30.6,10c7.4,6.7,11.1,16.4,11.1,29v44.9
		C195.3,194.4,191.6,204.1,184.2,210.8z M153.6,198.3c3.2,0,5.4-1.2,6.7-3.6c1.2-2.4,1.9-5.9,1.9-10.7v-49.5c0-4.8-0.6-8.4-1.9-10.8
		c-1.2-2.4-3.5-3.6-6.7-3.6c-3.1,0-5.2,1.2-6.5,3.7c-1.2,2.4-1.9,6-1.9,10.7v49.5c0,4.6,0.6,8.2,1.9,10.6
		C148.4,197.1,150.5,198.3,153.6,198.3z"/>
</g>
<g>
	<path class="st1" d="M263.1,244.9c-0.7,0.1-1.6,0.2-2.7,0.3c-1.1,0.1-2.1,0.1-3,0c-7.2-0.2-10.7-3.4-10.7-9.6V124.3
		c64.7-1.6,43.7-57.6,145.7-94.6c-77.3,22-75,40.8-117,68c-17,11-28.7,4.5-28.7,4.5v-36h-33.8v36h-11.3v21.9h11.3v105.4
		c0,3.5,0.1,6.6,0.3,9.4c0.2,2.8,0.6,5.7,1.1,8.7c0.5,3,1.3,5.7,2.2,7.9c0.9,2.3,2.1,4.5,3.7,6.6c1.5,2.1,3.3,3.9,5.4,5.3
		c2.1,1.4,4.6,2.6,7.6,3.5c3,0.9,6.3,1.4,10,1.6c1.1,0.1,2.3,0.1,3.4,0.1c6.1,0,12.7-0.6,19.9-1.8v-26.4c-0.1,0-0.5,0.1-1.2,0.2
		C264.5,244.7,263.8,244.8,263.1,244.9z"/>
	<path class="st1" d="M316,171.9v-19.8h-33.5V271H316v-76.2c6.2-9.1,13.8-13.9,23-14.4c1.8,0,3.6,0.2,5.5,0.7v-29.7
		c-1.9-0.5-3.5-0.8-4.7-0.8C331.2,150.7,323.3,157.8,316,171.9z"/>
	<path class="st1" d="M396.6,150.2c-13.1,0-23.2,3.5-30.4,10.5c-7.2,7-10.8,16.9-10.8,29.7v42.6c0,12.8,3.6,22.7,10.7,29.7
		c7.2,7,17.3,10.5,30.4,10.5c12.5,0,22.2-3.1,29.2-9.4c6.9-6.3,10.4-15.3,10.4-27.2v-6.9H405v7.9c0,7.7-2.8,11.5-8.4,11.5
		c-2.9,0-4.9-1.2-6.1-3.7c-1.2-2.4-1.8-6.1-1.8-10.9v-20.9h47.5v-23.4c0-13.2-3.3-23.2-9.9-30C419.7,153.6,409.8,150.2,396.6,150.2z
		 M405,198.1h-16.4v-9.8c0-5.2,0.7-8.8,2-10.9c1.3-2.1,3.3-3.2,5.9-3.2c2.7,0,4.9,0.9,6.3,2.8c1.5,1.8,2.2,5,2.2,9.4V198.1z"/>
	<path class="st1" d="M532.7,213.7v-23.4c0-13.2-3.3-23.2-9.9-30c-6.6-6.8-16.5-10.2-29.7-10.2c-13.1,0-23.2,3.5-30.4,10.5
		c-7.2,7-10.8,16.9-10.8,29.7v42.6c0,12.8,3.6,22.7,10.7,29.7c7.2,7,17.3,10.5,30.4,10.5c12.5,0,22.2-3.1,29.2-9.4
		c6.9-6.3,10.4-15.3,10.4-27.2v-6.9h-31.1v7.9c0,7.7-2.8,11.5-8.4,11.5c-2.9,0-4.9-1.2-6.1-3.7c-1.2-2.4-1.8-6.1-1.8-10.9v-20.9
		H532.7z M485.3,188.2c0-5.2,0.7-8.8,2-10.9c1.3-2.1,3.3-3.2,5.9-3.2c2.7,0,4.9,0.9,6.3,2.8c1.5,1.8,2.2,5,2.2,9.4v11.8h-16.4V188.2
		z"/>
</g>
<path class="st2" d="M456.2,24.8c-59.3,8.2-79.6,82.8-138.8,56.8c40.7-33.8,75.6-56.9,126-57.5C410.9,5.1,352.6-3,327.7,40
	C342,30,378,17.3,408.9,21.9c-51.8,8.9-85.7,32.9-105.6,50.3C310.1-0.4,391.7-22.1,456.2,24.8"/>
</svg>
